<?xml version="1.0" encoding="utf-8"?>
<!-- Generator: Adobe Illustrator 19.0.0, SVG Export Plug-In . SVG Version: 6.00 Build 0)  -->
<svg xmlns="http://www.w3.org/2000/svg" xmlns:xlink="http://www.w3.org/1999/xlink" version="1.1" id="Layer_1" x="0px" y="0px" viewBox="0 2 98 98" style="enable-background:new 0 2 98 98;" xml:space="preserve" width="512" height="512">
<style type="text/css">
	.st0{fill:url(#SVGID_1_);}
</style>
<linearGradient id="SVGID_1_" gradientUnits="userSpaceOnUse" x1="49" y1="99.5" x2="49" y2="6.5" gradientTransform="matrix(1 0 0 -1 0 104)">
	<stop offset="0" style="stop-color:#00EFD1"/>
	<stop offset="1" style="stop-color:#00ACEA"/>
</linearGradient>
<path class="st0" d="M92.5,48H79.2C77.7,33.7,66.3,22.3,52,20.8V7.5c0-1.7-1.3-3-3-3s-3,1.3-3,3v13.3C31.7,22.3,20.3,33.7,18.8,48  H5.5c-1.7,0-3,1.3-3,3s1.3,3,3,3h13.3C20.3,68.3,31.7,79.7,46,81.2v13.3c0,1.7,1.3,3,3,3s3-1.3,3-3V81.2  C66.3,79.7,77.7,68.3,79.2,54h13.3c1.7,0,3-1.3,3-3S94.2,48,92.5,48z M52,75.1V64.7c0-1.7-1.3-3-3-3s-3,1.3-3,3v10.4  C35,73.7,26.3,65,24.9,54h10.4c1.7,0,3-1.3,3-3s-1.3-3-3-3H24.9C26.3,37,35,28.3,46,26.9v10.4c0,1.7,1.3,3,3,3s3-1.3,3-3V26.9  C63,28.3,71.7,37,73.1,48H62.7c-1.7,0-3,1.3-3,3s1.3,3,3,3h10.4C71.7,65,63,73.7,52,75.1z"/>
</svg>
