<svg id="Capa_1" enable-background="new 0 0 512 512" height="512" viewBox="0 0 512 512" width="512" xmlns="http://www.w3.org/2000/svg" xmlns:xlink="http://www.w3.org/1999/xlink"><linearGradient id="SVGID_1_" gradientUnits="userSpaceOnUse" x1="256" x2="256" y1="421" y2="91"><stop offset="0" stop-color="#fd3a84"/><stop offset="1" stop-color="#ffa68d"/></linearGradient><linearGradient id="SVGID_2_" gradientUnits="userSpaceOnUse" x1="256" x2="256" y1="512" y2="0"><stop offset="0" stop-color="#ffc2cc"/><stop offset="1" stop-color="#fff2f4"/></linearGradient><g><path d="m256 91c-90.981 0-165 74.019-165 165s74.019 165 165 165 165-74.019 165-165-74.019-165-165-165z" fill="url(#SVGID_1_)"/><g><g><path d="m293.207 187.006c-16.479 0-28.696 7.529-37.207 16.992-8.511-9.463-20.728-16.992-37.207-16.992-29.282 0-52.222 24.331-52.222 55.386 0 32.607 25.356 54.009 60.454 83.628 6.021 5.083 12.422 10.488 19.146 16.318 2.827 2.446 6.328 3.662 9.829 3.662s7.002-1.216 9.829-3.662c6.782-5.874 13.198-11.309 19.219-16.392 36.357-30.762 60.381-51.079 60.381-83.555 0-31.054-22.94-55.385-52.222-55.385zm203.793 53.994h-16.76c-7.443-112.092-97.148-201.797-209.24-209.24v-16.76c0-8.291-6.709-15-15-15s-15 6.709-15 15v16.76c-112.092 7.443-201.797 97.148-209.24 209.24h-16.76c-8.291 0-15 6.709-15 15s6.709 15 15 15h16.76c7.443 112.092 97.148 201.797 209.24 209.24v16.76c0 8.291 6.709 15 15 15s15-6.709 15-15v-16.76c112.092-7.443 201.797-97.148 209.24-209.24h16.76c8.291 0 15-6.709 15-15s-6.709-15-15-15zm-241 210c-107.52 0-195-87.48-195-195s87.48-195 195-195 195 87.48 195 195-87.481 195-195 195z" fill="url(#SVGID_2_)"/></g></g></g></svg>