<?xml version="1.0" encoding="utf-8"?>
<!-- Generator: Adobe Illustrator 22.1.0, SVG Export Plug-In . SVG Version: 6.00 Build 0)  -->
<svg version="1.1" id="color" xmlns="http://www.w3.org/2000/svg" xmlns:xlink="http://www.w3.org/1999/xlink" x="0px" y="0px"
	 viewBox="0 0 512 512" style="enable-background:new 0 0 512 512;" xml:space="preserve">
<path class="st0" d="M254.8,76c-105.9,0-192,86.1-192,192s86.1,192,192,192s192-86.1,192-192S360.6,76,254.8,76z"/>
<g>
	<path class="st1" style="fill:#FAFAFA;" d="M254.8,460c-105.9,0-192-86.1-192-192s86.1-192,192-192s192,86.1,192,192S360.6,460,254.8,460z M254.8,108
		c-88.2,0-160,71.8-160,160s71.8,160,160,160s160-71.8,160-160S343,108,254.8,108z"/>
	<path class="st1" style="fill:#FAFAFA;" d="M254.8,385.3c-64.7,0-117.3-52.6-117.3-117.3s52.6-117.3,117.3-117.3S372.1,203.3,372.1,268
		S319.5,385.3,254.8,385.3z M254.8,182.7c-47.1,0-85.3,38.3-85.3,85.3s38.3,85.3,85.3,85.3s85.3-38.3,85.3-85.3
		S301.8,182.7,254.8,182.7z"/>
	<path class="st1" style="fill:#FAFAFA;" d="M254.8,310.7c-23.5,0-42.7-19.1-42.7-42.7s19.1-42.7,42.7-42.7s42.7,19.1,42.7,42.7S278.3,310.7,254.8,310.7z
		 M254.8,257.3c-5.9,0-10.7,4.8-10.7,10.7c0,5.9,4.8,10.7,10.7,10.7s10.7-4.8,10.7-10.7C265.4,262.1,260.7,257.3,254.8,257.3z"/>
</g>
<path class="st2" style="fill:#D43A2F;" d="M254.8,76c-105.9,0-192,86.1-192,192s86.1,192,192,192v-32c-88.2,0-160-71.8-160-160s71.8-160,160-160V76z"/>
<path class="st2" style="fill:#D43A2F;"  d="M254.8,150.7c-64.7,0-117.3,52.6-117.3,117.3s52.6,117.3,117.3,117.3v-32c-47.1,0-85.3-38.3-85.3-85.3
	s38.3-85.3,85.3-85.3V150.7z"/>
<path class="st2" style="fill:#D43A2F;" d="M254.8,225.3c-23.5,0-42.7,19.1-42.7,42.7s19.1,42.7,42.7,42.7v-32c-5.9,0-10.7-4.8-10.7-10.7
	c0-5.9,4.8-10.7,10.7-10.7V225.3z"/>
<path class="st3" style="fill:#DADADA;" d="M254.8,182.7c-47.1,0-85.3,38.3-85.3,85.3s38.3,85.3,85.3,85.3v-42.7c-23.5,0-42.7-19.1-42.7-42.7
	s19.1-42.7,42.7-42.7V182.7z M254.8,108c-88.2,0-160,71.8-160,160s71.8,160,160,160v-42.7c-64.7,0-117.3-52.6-117.3-117.3
	s52.6-117.3,117.3-117.3V108z"/>
<path class="st4" style="fill:#607D8B;" d="M255,284c-4.1,0-8.2-1.6-11.3-4.7c-6.3-6.3-6.3-16.4,0-22.6L382.4,118c6.3-6.3,16.4-6.3,22.6,0s6.3,16.4,0,22.6
	L266.3,279.3C263.2,282.4,259.1,284,255,284z"/>
<path class="st5" style="fill:#2196F3;" d="M452.3,140H399c-8.8,0-16-7.2-16-16V70.7c0-4.2,1.7-8.3,4.7-11.3l42.7-42.7c4.6-4.6,11.5-6,17.4-3.5
	c6,2.5,9.9,8.3,9.9,14.8v37.3H495c6.5,0,12.3,3.9,14.8,9.9s1.1,12.9-3.5,17.4l-42.7,42.7C460.7,138.3,456.6,140,452.3,140L452.3,140
	z"/>
<path class="st6" style="fill:#546D79;" d="M387.7,135.3l-144,144c3.1,3.1,7.2,4.7,11.3,4.7c4.1,0,8.2-1.6,11.3-4.7L405,140.6c0.2-0.2,0.4-0.4,0.6-0.6H399
	C394.6,140,390.6,138.2,387.7,135.3L387.7,135.3z"/>
<path class="st7" style="fill:#1D83D4;" d="M495,65.3h-37.3l-70,70c2.9,2.9,6.9,4.7,11.3,4.7h6.6h46.7c4.2,0,8.3-1.7,11.3-4.7l42.7-42.7
	c4.6-4.6,6-11.5,3.5-17.4C507.3,69.2,501.5,65.3,495,65.3z"/>
</svg>
