<?xml version="1.0" encoding="iso-8859-1"?>
<!-- Generator: Adobe Illustrator 19.0.0, SVG Export Plug-In . SVG Version: 6.00 Build 0)  -->
<svg version="1.1" id="Capa_1" xmlns="http://www.w3.org/2000/svg" xmlns:xlink="http://www.w3.org/1999/xlink" x="0px" y="0px"
	 viewBox="0 0 512.001 512.001" style="enable-background:new 0 0 512.001 512.001;" xml:space="preserve">
<path style="fill:#59C9FF;" d="M486.395,507.607l-302.93-302.93c-5.857-5.857-5.857-15.354,0-21.212
	c5.857-5.857,15.354-5.857,21.211,0l302.93,302.93c5.858,5.857,5.858,15.354,0,21.212
	C501.75,513.464,492.253,513.466,486.395,507.607z"/>
<path style="fill:#4BA9EF;" d="M507.607,486.395l-302.93-302.93c-5.857-5.857-15.354-5.857-21.211,0l0,0l324.141,324.142
	C513.464,501.75,513.464,492.253,507.607,486.395z"/>
<g>
	<path style="fill:#FFF35D;" d="M151.569,280.029c-12.452,0-24.148-5.963-31.516-16.382l-26.917-38.061
		c-1.661-2.349-4.364-3.72-7.248-3.693l-46.612,0.596c-14.873,0.192-28.268-7.914-35.011-21.149
		c-6.744-13.234-5.414-28.85,3.47-40.755l27.881-37.361c1.721-2.306,2.197-5.31,1.272-8.035L21.915,71.042l0,0
		c-4.77-14.067-1.209-29.33,9.294-39.833s25.768-14.064,39.833-9.294l44.147,14.97c2.726,0.924,5.73,0.448,8.035-1.272
		l37.361-27.881C172.488-1.15,188.104-2.48,201.34,4.264c13.234,6.743,21.338,20.158,21.149,35.01l-0.596,46.614
		c-0.037,2.877,1.344,5.587,3.693,7.248l38.061,26.916c12.128,8.577,18.218,23.018,15.894,37.689
		c-2.324,14.671-12.579,26.523-26.763,30.932l-44.515,13.838c-2.748,0.854-4.898,3.005-5.752,5.753l-13.837,44.515
		C183.58,269.164,168.65,280.029,151.569,280.029z"/>
	<path style="fill:#FFF35D;" d="M190.414,368.466h-19.998v-19.998c0-8.284-6.715-14.999-14.999-14.999s-14.999,6.715-14.999,14.999
		v19.998H120.42c-8.284,0-14.999,6.715-14.999,14.999s6.715,14.999,14.999,14.999h19.998v19.998c0,8.284,6.715,14.999,14.999,14.999
		s14.999-6.715,14.999-14.999v-19.998h19.998c8.284,0,14.999-6.715,14.999-14.999S198.698,368.466,190.414,368.466z"/>
</g>
<g>
	<path style="fill:#FFDC4C;" d="M208.263,202.511l44.515-13.838c14.184-4.409,24.439-16.261,26.763-30.932
		c2.324-14.67-3.766-29.112-15.894-37.689l-38.061-26.917c-2.349-1.661-3.73-4.371-3.693-7.248l0.596-46.614
		c0.189-14.852-7.914-28.267-21.149-35.01c-13.236-6.744-28.852-5.414-40.755,3.47l-37.361,27.88
		c-2.305,1.721-5.309,2.197-8.035,1.272L71.042,21.916c-14.065-4.77-29.33-1.208-39.833,9.294l173.467,173.467
		C205.664,203.689,206.889,202.938,208.263,202.511z"/>
	<path style="fill:#FFDC4C;" d="M333.403,170.481H368.4v34.997c0,8.284,6.715,14.999,14.999,14.999s14.999-6.715,14.999-14.999
		v-34.997h34.997c8.283,0,14.999-6.715,14.999-14.999s-6.715-14.999-14.999-14.999h-34.997v-34.997
		c0-8.284-6.715-14.999-14.999-14.999s-14.999,6.716-14.999,15v34.997h-34.997c-8.283,0-14.999,6.715-14.999,14.999
		C318.404,163.766,325.119,170.481,333.403,170.481z"/>
</g>
<g>
</g>
<g>
</g>
<g>
</g>
<g>
</g>
<g>
</g>
<g>
</g>
<g>
</g>
<g>
</g>
<g>
</g>
<g>
</g>
<g>
</g>
<g>
</g>
<g>
</g>
<g>
</g>
<g>
</g>
</svg>
