<svg id="图层_1" data-name="图层 1" xmlns="http://www.w3.org/2000/svg" viewBox="0 0 99.8 100"><defs><style>.cls-1{fill:#fcfcfe;}.cls-2{fill:#65a0f0;}.cls-3{fill:#a4c8fa;}.cls-4{fill:#fafbfe;}</style></defs><title>2</title><path class="cls-1" d="M1,1h99.8V101H1ZM50.11,3.17c-2.66,0-5.39-.42-8,.05C17.36,7.75-.94,30.52,2.28,55.17A73,73,0,0,0,3.88,64C9.39,82,21.39,93.71,39.74,97.78,58.8,102,75.21,96,87.34,80.9c12.28-15.32,14.45-32.77,5.79-50.54C84.53,12.74,70,3.51,50.11,3.17Z" transform="translate(-1.04 -1)"/><path class="cls-2" d="M50.11,3.17c19.85.34,34.42,9.57,43,27.19,8.66,17.77,6.49,35.22-5.79,50.54C75.21,96,58.8,102,39.74,97.78,21.39,93.71,9.39,82,3.88,64a73,73,0,0,1-1.6-8.78c14.12,0,28.24-.27,42.35,0,4.57.09,5.52-1.43,5.46-5.68C49.89,34.06,50.07,18.61,50.11,3.17Zm23,72.55-2.21.22c-.46-2.9-.93-5.79-1.42-8.89-1.55-.07-3-.22-4.49-.19s-2.87.2-4.9.36a70.79,70.79,0,0,0,1.13,8.19c1.19,4.57,6.49,7.12,12.72,6.44,5.44-.6,8.8-3.44,9-8.23a112.43,112.43,0,0,0,0-14c-.32-4.65-3-6.79-7.69-6.6a45.32,45.32,0,0,0-5.15.8v-5H81.77l-.32-5.44H61.15V62.92l11.94-3Z" transform="translate(-1.04 -1)"/><path class="cls-3" d="M50.11,3.17c0,15.44-.22,30.89,0,46.33.06,4.25-.89,5.77-5.46,5.68-14.11-.28-28.23,0-42.35,0C-.94,30.52,17.36,7.75,42.15,3.22,44.72,2.75,47.45,3.16,50.11,3.17Z" transform="translate(-1.04 -1)"/><path class="cls-4" d="M73.09,75.72V59.93l-11.94,3V43.41h20.3l.32,5.44H70.08v5a45.32,45.32,0,0,1,5.15-.8c4.67-.19,7.37,2,7.69,6.6a112.43,112.43,0,0,1,0,14c-.25,4.79-3.61,7.63-9,8.23-6.23.68-11.53-1.87-12.72-6.44a70.79,70.79,0,0,1-1.13-8.19c2-.16,3.46-.35,4.9-.36s2.94.12,4.49.19c.49,3.1,1,6,1.42,8.89Z" transform="translate(-1.04 -1)"/></svg>