<?xml version="1.0" encoding="utf-8"?>
<!-- Generator: Adobe Illustrator 22.1.0, SVG Export Plug-In . SVG Version: 6.00 Build 0)  -->
<svg version="1.1" id="图层_1" xmlns="http://www.w3.org/2000/svg" xmlns:xlink="http://www.w3.org/1999/xlink" x="0px" y="0px"
	 viewBox="0 0 93.8 93.8" style="enable-background:new 0 0 93.8 93.8;" xml:space="preserve">
<style type="text/css">
	.st0{fill:#CED1FB;}
	.st1{fill:#5153FE;}
</style>
<title>more</title>
<path class="st0" d="M84.2,47.1c-0.2,20.6-17,37.1-37.5,37c-20.4,0-37.7-17-37.2-37.5c0.6-21.4,15.8-37,37.6-37S84.3,27,84.2,47.1z
	 M68.3,47.3c0-13.1-8.9-22.2-21.7-22.1c-11.6,0-21.2,10.1-21.5,21.8c-0.4,11.3,11.1,21.9,19.8,22C56.5,69,68.8,59.9,68.3,47.3z"/>
<path class="st1" d="M68.3,47.3C68.8,59.9,56.5,69.1,44.9,69c-8.7-0.1-20.2-10.7-19.8-22c0.4-11.7,10-21.8,21.5-21.8
	C59.4,25.1,68.3,34.2,68.3,47.3z"/>
</svg>
