<svg id="图层_1" data-name="图层 1" xmlns="http://www.w3.org/2000/svg" viewBox="0 0 95.86 95.97"><defs><style>.cls-1{fill:#a9eaf8;}.cls-2{fill:#b1512e;}.cls-3{fill:#903f10;}.cls-4{fill:#24d6dd;}.cls-5{fill:#23d6dd;}.cls-6{fill:#1eabdc;}.cls-7{fill:#27d7de;}.cls-8{fill:#d9f1fd;}.cls-9{fill:#d8eef9;}.cls-10{fill:#e6fdfd;}.cls-11{fill:#e5fcfc;}.cls-12{fill:#914315;}.cls-13{fill:#d9f1fc;}.cls-14{fill:#e6fefe;}.cls-15{fill:#fb3c93;}.cls-16{fill:#fb75b2;}</style></defs><title>timer</title><path class="cls-1" d="M41.25,98.25c-1.46-.25-2.92-.48-4.37-.75a41.08,41.08,0,0,1-18.35-8.37A42.15,42.15,0,0,1,6.31,73.74,41.51,41.51,0,0,1,2.79,61.68,42.41,42.41,0,0,1,4.67,42.06,40.21,40.21,0,0,1,12.3,28.65a5.7,5.7,0,0,0,.45-.71l3.82-3.74c.07-.07.05-.23.08-.34.68-.47,1.39-.89,2-1.4A40.88,40.88,0,0,1,34.6,14.72c2.17-.52,4.41-.7,6.62-1,.24,0,.47-.12.71-.18l2.85,0c0,3.66,0,7.31,0,11-1.64.14-3.3.18-4.93.44a30.5,30.5,0,0,0-20.3,12.37A29.91,29.91,0,0,0,14.09,62c2.27,10.93,8.77,18.53,19,22.9a30.87,30.87,0,0,0,11.66,2.3c0,3.67,0,7.35,0,11Z" transform="translate(-2.39 -2.28)"/><path class="cls-2" d="M76.69,98.25H74.06c-.06-.06-.12-.16-.19-.17a22.43,22.43,0,0,1-10.24-4.22,23.07,23.07,0,0,1-6.84-8.93l-1.47-5.61c0-.72,0-1.44-.07-2.15a21,21,0,0,1,2.81-11,22.72,22.72,0,0,1,7-7.48,23.24,23.24,0,0,1,11-3.38l.57.06q0,6.72,0,13.43H71.94l-.77,9.54H76.7l0,.07,0,2.07a.68.68,0,0,1,0,.14,9,9,0,0,1-4.86-1.1l-1.77,3.85a12.82,12.82,0,0,0,6.65,1.36l0,.06Z" transform="translate(-2.39 -2.28)"/><path class="cls-3" d="M76.7,68.79q0-6.72,0-13.43c.43,0,.87,0,1.3,0A22.59,22.59,0,0,1,87.13,58a22,22,0,0,1,9.14,10,21.4,21.4,0,0,1,1.8,7.11,3.13,3.13,0,0,0,.18.57v2.44a2.35,2.35,0,0,0-.2.56,21.47,21.47,0,0,1-16.81,19l-2.11.5H76.69q0-6.73,0-13.47a8.1,8.1,0,0,0,4.41-1.28A4.9,4.9,0,0,0,83.32,79a4.1,4.1,0,0,0-2.82-4,22.78,22.78,0,0,0-3.81-.63c-.17-.12-.5-.29-.49-.36a11.35,11.35,0,0,1,.49-1.21h5.55v-3.9H76.68Z" transform="translate(-2.39 -2.28)"/><path class="cls-4" d="M56.79,84.93a23.07,23.07,0,0,0,6.84,8.93A44.26,44.26,0,0,1,52.11,97.6c-1.37.24-2.74.43-4.11.65H44.81c0-3.67,0-7.35,0-11l0,0c2.41-.29,4.85-.5,7.24-.92A45.07,45.07,0,0,0,56.79,84.93Z" transform="translate(-2.39 -2.28)"/><path class="cls-5" d="M87.13,58A22.59,22.59,0,0,0,78,55.37c-.43,0-.87,0-1.3,0l-.57-.06a31.41,31.41,0,0,0-31.3-30.73l0-.06c0-3.66,0-7.31,0-11l0,0h2.76c1.69.25,3.38.44,5.06.75a41.67,41.67,0,0,1,19.44,9.22,6.54,6.54,0,0,0,.84.52c.45.48.89,1,1.35,1.45l2.53,2.51c.57.77,1.14,1.55,1.72,2.31A41,41,0,0,1,86.8,50.92C87.05,53.27,87,55.65,87.13,58Z" transform="translate(-2.39 -2.28)"/><path class="cls-5" d="M44.78,13.54l-2.85,0V7.9H36.59V2.28h8.22c0,3.74,0,7.47,0,11.21Z" transform="translate(-2.39 -2.28)"/><path class="cls-6" d="M44.82,13.49c0-3.74,0-7.47,0-11.21H53V7.89H47.63l-.07.16c0,1.81,0,3.63,0,5.44Z" transform="translate(-2.39 -2.28)"/><path class="cls-7" d="M16.65,23.86c0,.11,0,.27-.08.34l-3.82,3.74L8,23.17l4-4.05Z" transform="translate(-2.39 -2.28)"/><path class="cls-6" d="M76.8,27.94l-2.53-2.51c-.46-.47-.9-1-1.35-1.45l4.78-4.61,3.78,3.8Z" transform="translate(-2.39 -2.28)"/><path class="cls-5" d="M47.56,8.05l.07-.16A1.11,1.11,0,0,1,47.56,8.05Z" transform="translate(-2.39 -2.28)"/><path class="cls-4" d="M44.77,87.23a30.87,30.87,0,0,1-11.66-2.3c-10.25-4.37-16.75-12-19-22.9a29.91,29.91,0,0,1,5.45-24.71A30.5,30.5,0,0,1,39.84,25c1.63-.26,3.29-.3,4.93-.44l0,.06c0,3.61,0,7.22,0,10.83l0,.07h-2.9V30.31a25.43,25.43,0,0,0-15.79,7.86,25,25,0,0,0-6.91,14.92h5.05v5.63H19.2a25.39,25.39,0,0,0,8.85,16.65,25.07,25.07,0,0,0,14,6V76.28h2.82l0,.06,0,10.84Z" transform="translate(-2.39 -2.28)"/><path class="cls-8" d="M65.11,58.68a22.72,22.72,0,0,0-7,7.48,21,21,0,0,0-2.81,11c0,.71,0,1.43.07,2.15a25.86,25.86,0,0,1-7.75,2.05v-5H44.8l0-.06q0-9.23,0-18.43h2.69V41.23H44.8l0-5.76,0-.07h2.8v-5c10.67.78,21.44,10,22.66,22.66H65.11Z" transform="translate(-2.39 -2.28)"/><path class="cls-6" d="M65.11,58.68V53.07h5.15C69,40.44,58.27,31.19,47.6,30.41v5H44.8c0-3.61,0-7.22,0-10.83A31.41,31.41,0,0,1,76.12,55.3,23.24,23.24,0,0,0,65.11,58.68Z" transform="translate(-2.39 -2.28)"/><path class="cls-6" d="M44.8,76.34h2.77v5a25.86,25.86,0,0,0,7.75-2.05l1.47,5.61a45.07,45.07,0,0,1-4.73,1.33c-2.39.42-4.83.63-7.24.92C44.81,83.57,44.81,80,44.8,76.34Z" transform="translate(-2.39 -2.28)"/><path class="cls-9" d="M76.69,74.32A22.78,22.78,0,0,1,80.5,75a4.1,4.1,0,0,1,2.82,4,4.9,4.9,0,0,1-2.23,4.55,8.1,8.1,0,0,1-4.41,1.28l0-.06c0-1.37,0-2.74,0-4.11a.68.68,0,0,0,0-.14c.68,0,1.27-.3,1.28-1.06s-.66-.93-1.3-1l0-.07C76.69,77,76.69,75.66,76.69,74.32Z" transform="translate(-2.39 -2.28)"/><path class="cls-10" d="M76.69,74.32c0,1.34,0,2.67,0,4H71.17l.77-9.54H76.7l0,.06c0,1.3,0,2.6,0,3.9A11.35,11.35,0,0,0,76.2,74C76.19,74,76.52,74.2,76.69,74.32Z" transform="translate(-2.39 -2.28)"/><path class="cls-11" d="M76.68,80.61c0,1.37,0,2.74,0,4.11a12.82,12.82,0,0,1-6.65-1.36l1.77-3.85A9,9,0,0,0,76.68,80.61Z" transform="translate(-2.39 -2.28)"/><path class="cls-12" d="M76.68,78.4c.64.08,1.32.18,1.3,1s-.6,1-1.28,1.06Z" transform="translate(-2.39 -2.28)"/><path class="cls-13" d="M76.69,72.75c0-1.3,0-2.6,0-3.9h5.56v3.9Z" transform="translate(-2.39 -2.28)"/><path class="cls-14" d="M44.8,57.85q0,9.21,0,18.43H42v5.14a25.07,25.07,0,0,1-13.95-6A25.39,25.39,0,0,1,19.2,58.72h5.07V53.09H19.22a25,25,0,0,1,6.91-14.92,25.43,25.43,0,0,1,15.79-7.86v5.16h2.9c0,1.92,0,3.84,0,5.76l0,.05H41.92V57.77h2.87Z" transform="translate(-2.39 -2.28)"/><path class="cls-15" d="M44.8,41.23h2.69V57.84H44.8v-.08q0-8.25,0-16.49Z" transform="translate(-2.39 -2.28)"/><path class="cls-16" d="M44.83,41.28q0,8.25,0,16.49H41.92V41.28Z" transform="translate(-2.39 -2.28)"/></svg>